<svg width="1371" height="973" viewBox="0 0 1371 973" fill="none" xmlns="http://www.w3.org/2000/svg">
<path d="M774.484 823.236C741.985 802.162 712.771 789.205 674.332 741.886L669.026 736.58C663.495 733.188 661.877 730.223 658.945 728.622C653.1 725.292 651.71 716.946 642.497 707.399C633.53 696.61 626.749 682.945 615.438 660.708C603.962 638.148 588.165 620.088 581.283 599.22C574.476 578.578 565.465 555.792 567.067 466.942C567.813 425.54 563.401 386.899 567.067 346.078C570.534 307.48 582.569 277.018 589.06 257.338C598.241 229.503 607.733 207.135 622.335 184.253C655.433 132.389 668.221 123.237 683.415 116.971C719.257 102.189 755.331 81.3559 775.671 80.7915C794.525 80.2684 789.173 79.7313 811.777 81.7674H816.022C853.693 81.7674 852.074 80.7916 924.534 85.8115C951.492 87.6791 961.664 87.6982 997.451 85.8115C1033.24 83.9249 1102.07 83.3417 1174.66 85.8115C1247.26 88.2813 1289.27 85.8115 1368.32 85.8115L1370.97 661.393V664.422C1370.97 664.422 1356.82 672.637 1311.1 693.381C1276.96 710.05 1233.46 724.943 1183.29 748.439C1135.94 770.613 1101.29 786.589 1085.73 796.891C1032.25 832.306 995.819 847.711 992.172 847.915L989.578 849.045C968.704 857.013 933.024 857.057 915.539 854.631C881.989 849.976 857.821 847.01 842.82 843.158C821.659 837.724 795.471 836.845 774.484 823.236Z" fill="#C1C1C1"/>
<path d="M1021.43 358.423C1026.7 365.932 1028.69 370.615 1030.37 372.658L1038.15 386.47C1041.66 396.146 1048.07 406.717 1049.5 418.436C1052.12 440.041 1052.65 461.264 1049.5 481.426C1045.03 509.964 1038.37 519.564 1033.42 531.987C1029.58 541.604 1027.96 553.381 1021.76 560.49C1015.54 567.629 1006.51 579.415 995.202 588.951C980.271 601.542 968.579 616.046 960.862 622.028C952.304 628.662 931.394 638.572 917.047 641.937C904.626 644.85 890.827 645.904 873.848 645.904L851.845 641.799C830.548 636.416 795.812 634.368 775.162 622.028C753.04 608.808 737.404 588.236 721.043 567.909C707.397 550.955 682.139 532.049 679.658 481.426C677.835 444.214 680.962 415.763 686.025 405.023C697.546 380.589 707.421 350.932 731.395 334.25C766.877 309.562 791.736 292.147 797.379 289.46C803.262 286.66 810.774 282.076 827.234 281.97C879.652 281.631 914.117 283.302 931.581 293.748C942.315 300.168 959.884 307.651 969.737 316.308C978.96 324.411 987.093 330.917 996.278 337.008L996.541 337.182C1005.4 343.06 1015.23 349.576 1021.43 358.423Z" fill="#FFCF0F"/>
<rect width="870.267" height="31.9491" transform="matrix(0.992892 -0.119016 0.10035 0.994952 14.0475 550.66)" fill="#E7E7E7"/>
<path d="M820.693 480.13C819.507 481.071 811.9 484.195 803.981 485.638C798.406 486.653 787.339 484.474 769.288 484.675C759.74 484.781 753.546 485.989 746.395 486.628C736.083 487.549 722.91 493.561 715.508 494.989C709.005 496.243 701.421 495.198 693.714 495.649C685.665 496.12 680.246 496.545 673.866 498.718C667.227 500.98 654.813 503.75 641.969 502.783C631.967 502.03 625.04 503.273 609.568 506.824C598.806 509.294 583.62 507.386 575.684 509.858C566.593 512.69 545.606 517.491 525.688 518.538C515.311 519.084 496.7 523.814 479.651 524.146C464.665 524.439 458.153 524.527 448.889 525.424C441.409 526.148 422.706 528.294 410.133 530.372C398.839 532.239 393.502 532.412 385.814 533.462C373.601 535.13 366.484 537.358 354.363 536.716C334.931 533.592 330.729 532.933 327.568 533.148C326.058 533.368 324.741 533.814 322.797 534.787" stroke="#E7E7E7" stroke-width="6" stroke-linecap="round"/>
<path d="M406.323 510.096C404.489 510.145 394.31 512.034 381.021 516.91C371.767 520.305 360.214 518.103 352.234 517.769C342.811 517.375 334.993 520.117 317.652 516.995C308.484 515.345 296.119 519.138 283.702 519.126C277.355 519.12 266.612 519.602 259.871 521.576C246.217 525.577 234.678 525.721 200.109 529.662C186.303 531.236 180.006 532.514 173.974 533.492C165.971 534.79 158.121 538.456 152.07 540.128C145.592 541.918 140.053 543.348 132.214 544.82C114.165 548.211 101.584 545.261 94.1659 546.117C79.1457 547.849 71.2423 551.362 65.543 553.003C58.486 553.459 52.7469 553.441 48.9713 552.811C47.2596 552.461 45.9626 552.047 42.9154 551.531" stroke="#E7E7E7" stroke-width="6" stroke-linecap="round"/>
<path d="M1010.21 346.66C1007.95 344.932 1004.64 342.665 1003.84 342.416L1000.66 341.844C993.633 341.048 995.522 337.733 959.146 346.809C948.067 349.573 942.969 352.568 932.576 357.777C925.589 361.279 916.551 363.339 900.089 373.34C893.381 377.416 888.817 381.142 884.37 385.04C879.486 389.32 873.427 393.021 869.492 397.264C864.158 403.017 855.828 410.482 851.15 417.466C847.413 423.046 842.063 428.301 837.766 432.366C833.293 436.598 827.899 440.064 824.281 444.215C819.89 449.253 817.48 451.378 811.941 455.092L819.716 472.132C820.991 472.397 824.028 477.791 824.915 478.514C826.321 480.389 829.434 482.877 834.602 485.535C839.811 488.606 846.85 494.354 851.9 499.427C857.385 504.939 863.078 510.524 866.974 514.771C870.87 519.018 881.034 525.44 882.953 530.726C884.664 535.438 886.91 535.332 891.176 539.118C895.442 542.903 898.777 547.82 903.764 550.702C908.752 553.584 915.281 554.37 920.298 556.902C926.529 560.047 934.044 564.054 941.479 564.792C947.052 565.346 953.622 566.898 964.27 565.534C990.356 562.193 1021.23 563.386 1024.54 556.767C1025.07 555.706 1026.93 553.831 1027.54 551.129C1028.5 547.253 1029.51 542.925 1031.76 537.539C1032.6 535.531 1033.71 531.711 1035.58 527.388C1036.83 524.473 1039.14 520.907 1039.92 518.035C1040.23 516.91 1041.21 513.212 1043.6 507.246C1045.29 503.044 1045.76 499.996 1046.82 495.221C1047.74 491.089 1048.77 487.277 1049.47 481.426C1049.83 478.5 1051.6 477.789 1051.6 466.57C1051.6 461.264 1052.45 456.655 1052.13 454.367C1051.59 450.541 1052.01 444.726 1051.6 441.633C1051.28 439.303 1051.09 433.215 1050.54 426.246C1049.97 419.209 1048.79 414.699 1048.41 412.451C1047.88 409.268 1046.58 406.104 1045.76 403.432C1044.8 400.294 1042.75 397.478 1041.54 394.749C1039.96 391.201 1039.4 388.411 1038.86 387.514C1038.43 386.789 1036.64 382.757 1033.03 376.903C1029.39 371.004 1027.52 367.955 1026 365.505C1024.34 362.829 1023.77 361.188 1022.35 359.291C1020.61 356.957 1017.64 353.558 1015.52 351.435C1013.57 349.49 1011.44 347.597 1010.21 346.66Z" fill="#FF7700"/>
</svg>
