<svg width="660" height="105" viewBox="0 0 660 105" fill="none" xmlns="http://www.w3.org/2000/svg">
<g clip-path="url(#clip0_10_15)">
<rect width="283.598" height="11.4647" transform="matrix(1 0 0 -1 279 58.4648)" fill="#C1C1C1"/>
<path d="M22.944 18.96V90H7.392V18.96H22.944ZM36.192 66.384H19.104V52.56H32.736C36.512 52.56 39.328 51.76 41.184 50.16C43.04 48.496 43.968 46 43.968 42.672C43.968 39.344 43.04 36.88 41.184 35.28C39.328 33.616 36.512 32.784 32.736 32.784H19.104V18.96H36.192C41.056 18.96 45.28 19.952 48.864 21.936C52.512 23.92 55.328 26.704 57.312 30.288C59.36 33.808 60.384 37.936 60.384 42.672C60.384 47.408 59.36 51.568 57.312 55.152C55.328 58.672 52.512 61.424 48.864 63.408C45.28 65.392 41.056 66.384 36.192 66.384ZM75.588 90H59.364L84.708 18.96H99.876L125.124 90H108.612L103.62 75.024H80.676L75.588 90ZM90.276 46.8L85.188 61.968H99.204L94.116 46.8C93.732 45.584 93.348 44.336 92.964 43.056C92.58 41.776 92.324 40.72 92.196 39.888C92.068 40.72 91.812 41.776 91.428 43.056C91.108 44.272 90.724 45.52 90.276 46.8ZM148.944 18.96V90H133.392V18.96H148.944ZM162.096 61.104H143.952V48.048H161.328C164.144 48.048 166.288 47.376 167.76 46.032C169.232 44.688 169.968 42.736 169.968 40.176C169.968 37.68 169.232 35.792 167.76 34.512C166.288 33.232 164.144 32.592 161.328 32.592H145.008V18.96H162.96C170.128 18.96 175.728 20.72 179.76 24.24C183.856 27.76 185.904 32.56 185.904 38.64C185.904 42.8 184.88 46.32 182.832 49.2C180.784 52.08 177.808 54.128 173.904 55.344V54C178.064 54.896 181.232 56.752 183.408 59.568C185.648 62.384 186.768 66 186.768 70.416C186.768 74.576 185.84 78.128 183.984 81.072C182.192 84.016 179.504 86.256 175.92 87.792C172.4 89.264 168.08 90 162.96 90H145.008V76.368H162.096C164.976 76.368 167.152 75.728 168.624 74.448C170.096 73.104 170.832 71.12 170.832 68.496C170.832 66.064 170.064 64.24 168.528 63.024C167.056 61.744 164.912 61.104 162.096 61.104ZM212.788 18.96V90H197.236V18.96H212.788ZM200.02 90V75.6H240.82V90H200.02ZM312.869 54.384C312.869 61.616 311.397 68.016 308.453 73.584C305.509 79.088 301.413 83.408 296.165 86.544C290.917 89.616 284.837 91.152 277.925 91.152C271.077 91.152 265.029 89.616 259.781 86.544C254.597 83.408 250.533 79.088 247.589 73.584C244.709 68.08 243.269 61.712 243.269 54.48C243.269 47.248 244.741 40.88 247.685 35.376C250.629 29.808 254.693 25.488 259.877 22.416C265.125 19.28 271.173 17.712 278.021 17.712C284.933 17.712 290.981 19.28 296.165 22.416C301.413 25.488 305.509 29.776 308.453 35.28C311.397 40.784 312.869 47.152 312.869 54.384ZM296.453 54.384C296.453 49.84 295.717 45.968 294.245 42.768C292.773 39.504 290.661 37.008 287.909 35.28C285.221 33.552 281.957 32.688 278.117 32.688C274.277 32.688 270.981 33.552 268.229 35.28C265.477 37.008 263.365 39.504 261.893 42.768C260.421 45.968 259.685 49.84 259.685 54.384C259.685 58.928 260.421 62.832 261.893 66.096C263.365 69.36 265.477 71.856 268.229 73.584C270.981 75.312 274.277 76.176 278.117 76.176C281.957 76.176 285.221 75.312 287.909 73.584C290.661 71.792 292.773 69.264 294.245 66C295.717 62.736 296.453 58.864 296.453 54.384ZM381.079 32.4C376.791 32.4 373.207 33.36 370.327 35.28C367.447 37.136 365.271 39.76 363.799 43.152C362.327 46.544 361.591 50.544 361.591 55.152C361.591 59.888 362.423 63.856 364.087 67.056C365.751 70.256 368.023 72.656 370.903 74.256C373.847 75.792 377.207 76.56 380.983 76.56C384.183 76.56 386.903 76.144 389.143 75.312C391.383 74.48 393.175 73.328 394.519 71.856C395.927 70.384 396.951 68.72 397.591 66.864C398.295 65.008 398.647 63.088 398.647 61.104V55.44L406.039 62.832H379.735V49.2H413.143V90H399.799L398.551 80.304L400.279 81.744C399.255 83.6 397.655 85.232 395.479 86.64C393.367 88.048 390.871 89.136 387.991 89.904C385.175 90.672 382.167 91.056 378.967 91.056C372.375 91.056 366.519 89.552 361.399 86.544C356.343 83.472 352.375 79.216 349.495 73.776C346.615 68.336 345.175 61.968 345.175 54.672C345.175 47.504 346.679 41.168 349.687 35.664C352.695 30.096 356.919 25.744 362.359 22.608C367.799 19.408 374.167 17.808 381.463 17.808C387.159 17.808 392.279 18.864 396.823 20.976C401.431 23.024 405.175 25.968 408.055 29.808C410.935 33.584 412.631 38.032 413.143 43.152H396.823C395.927 39.376 394.007 36.656 391.063 34.992C388.119 33.264 384.791 32.4 381.079 32.4ZM441.538 18.96V90H425.986V18.96H441.538ZM428.77 90V75.6H469.57V90H428.77ZM490.901 90H474.677L500.021 18.96H515.189L540.437 90H523.925L518.933 75.024H495.989L490.901 90ZM505.589 46.8L500.501 61.968H514.517L509.429 46.8C509.045 45.584 508.661 44.336 508.277 43.056C507.893 41.776 507.637 40.72 507.509 39.888C507.381 40.72 507.125 41.776 506.741 43.056C506.421 44.272 506.037 45.52 505.589 46.8ZM544.769 39.6C544.769 35.312 545.889 31.536 548.129 28.272C550.369 24.944 553.441 22.352 557.345 20.496C561.313 18.576 565.825 17.616 570.881 17.616C576.001 17.616 580.417 18.512 584.129 20.304C587.841 22.096 590.689 24.624 592.673 27.888C594.721 31.152 595.745 35.024 595.745 39.504H580.289C580.289 37.008 579.425 35.056 577.697 33.648C575.969 32.176 573.633 31.44 570.689 31.44C567.553 31.44 565.025 32.112 563.105 33.456C561.249 34.8 560.321 36.656 560.321 39.024C560.321 41.2 560.897 42.864 562.049 44.016C563.201 45.168 565.025 46 567.521 46.512L578.177 48.72C584.513 50 589.217 52.24 592.289 55.44C595.361 58.576 596.897 62.96 596.897 68.592C596.897 73.136 595.777 77.136 593.537 80.592C591.297 83.984 588.129 86.608 584.033 88.464C580.001 90.32 575.265 91.248 569.825 91.248C564.577 91.248 559.969 90.352 556.001 88.56C552.097 86.768 549.057 84.24 546.881 80.976C544.769 77.648 543.713 73.776 543.713 69.36H559.169C559.169 71.92 560.097 73.904 561.953 75.312C563.809 76.72 566.465 77.424 569.921 77.424C573.441 77.424 576.225 76.784 578.273 75.504C580.321 74.16 581.345 72.368 581.345 70.128C581.345 68.144 580.833 66.608 579.809 65.52C578.849 64.432 577.185 63.664 574.817 63.216L563.969 61.008C557.633 59.728 552.833 57.296 549.569 53.712C546.369 50.128 544.769 45.424 544.769 39.6ZM604.206 39.6C604.206 35.312 605.326 31.536 607.566 28.272C609.806 24.944 612.878 22.352 616.782 20.496C620.75 18.576 625.262 17.616 630.318 17.616C635.438 17.616 639.854 18.512 643.566 20.304C647.278 22.096 650.126 24.624 652.11 27.888C654.158 31.152 655.182 35.024 655.182 39.504H639.726C639.726 37.008 638.862 35.056 637.134 33.648C635.406 32.176 633.07 31.44 630.126 31.44C626.99 31.44 624.462 32.112 622.542 33.456C620.686 34.8 619.758 36.656 619.758 39.024C619.758 41.2 620.334 42.864 621.486 44.016C622.638 45.168 624.462 46 626.958 46.512L637.614 48.72C643.95 50 648.654 52.24 651.726 55.44C654.798 58.576 656.334 62.96 656.334 68.592C656.334 73.136 655.214 77.136 652.974 80.592C650.734 83.984 647.566 86.608 643.47 88.464C639.438 90.32 634.702 91.248 629.262 91.248C624.014 91.248 619.406 90.352 615.438 88.56C611.534 86.768 608.494 84.24 606.318 80.976C604.206 77.648 603.15 73.776 603.15 69.36H618.606C618.606 71.92 619.534 73.904 621.39 75.312C623.246 76.72 625.902 77.424 629.358 77.424C632.878 77.424 635.662 76.784 637.71 75.504C639.758 74.16 640.782 72.368 640.782 70.128C640.782 68.144 640.27 66.608 639.246 65.52C638.286 64.432 636.622 63.664 634.254 63.216L623.406 61.008C617.07 59.728 612.27 57.296 609.006 53.712C605.806 50.128 604.206 45.424 604.206 39.6Z" fill="black"/>
<ellipse cx="278.5" cy="53" rx="37.5" ry="40" fill="#FF7700"/>
</g>
<defs>
<clipPath id="clip0_10_15">
<rect width="660" height="105" fill="white"/>
</clipPath>
</defs>
</svg>
