<svg width="759" height="732" viewBox="0 0 759 732" fill="none" xmlns="http://www.w3.org/2000/svg">
<rect width="759" height="732" fill="#1E1E1E"/>
<path d="M196.855 700.114C166.229 680.254 138.699 668.044 102.474 623.451L97.4743 618.451C92.2617 615.255 90.737 612.46 87.9743 610.951C82.466 607.813 81.1559 599.949 72.4743 590.951C64.0243 580.785 57.634 567.907 46.9743 546.951C36.1594 525.691 21.2732 508.672 14.7877 489.006C8.37248 469.554 -0.118831 448.081 1.39051 364.351C2.09382 325.334 -2.06413 288.92 1.39074 250.451C4.65749 214.077 15.9994 185.371 22.1165 166.825C30.7684 140.594 39.7136 119.515 53.4743 97.9514C84.6645 49.0753 96.7154 40.4513 111.035 34.5457C144.811 20.6156 178.806 0.983238 197.974 0.45141C215.742 -0.0415631 210.699 -0.547709 232 1.37109H236C271.5 1.37108 269.975 0.451449 338.259 5.18213C363.664 6.94214 373.25 6.96012 406.975 5.18217C440.699 3.40422 505.561 2.85464 573.975 5.18215C642.388 7.50965 681.975 5.18217 756.475 5.18217L758.975 547.597V550.451C758.975 550.451 745.64 558.193 702.551 577.742C670.374 593.45 629.384 607.484 582.104 629.627C537.485 650.523 504.83 665.578 490.168 675.287C439.765 708.661 405.437 723.179 402 723.371L399.555 724.435C379.884 731.944 346.26 731.986 329.783 729.7C298.166 725.313 275.39 722.518 261.254 718.888C241.312 713.767 216.633 712.939 196.855 700.114Z" fill="#C1C1C1"/>
<path d="M-175 622.5C-140.791 622.5 -106.916 609.091 -75.311 596C-43.7057 582.909 -14.9883 570.391 9.20132 546.201C33.391 522.012 52.5793 493.294 65.6706 461.689C78.762 430.084 85.5 396.209 85.5 362C85.5 327.791 72.0914 295.605 59 264C45.9086 232.395 33.391 201.988 9.2013 177.799C-14.9884 153.609 -43.7057 134.421 -75.311 121.329C-106.916 108.238 -139 109 -175 102L-173.5 150.5L-175 198.906C-153 207.5 -132.374 203.125 -112.587 211.321C-92.7993 219.517 -74.82 231.531 -59.6754 246.675C-44.5307 261.82 -32.5173 279.799 -24.3211 299.587C-16.1249 319.374 -11.9064 340.582 -11.9064 362C-11.9064 383.418 -16.1249 404.626 -24.3211 424.413C-32.5173 444.201 -49.3554 463.855 -64.5 479C-79.6446 494.145 -92.7993 504.483 -112.587 512.679C-132.374 520.875 -153.582 535.5 -175 535.5V622.5Z" fill="#D9D9D9"/>
<path d="M429.575 262.084C434.535 269.161 436.414 273.574 437.994 275.5L445.327 288.516C448.636 297.634 454.681 307.596 456.022 318.639C458.494 339 458.994 359 456.022 378C451.816 404.894 445.539 413.94 440.871 425.647C437.257 434.711 435.724 445.809 429.883 452.508C424.019 459.236 415.51 470.342 404.855 479.329C390.785 491.195 379.766 504.863 372.494 510.5C364.429 516.752 344.724 526.091 331.204 529.262C319.498 532.007 306.494 533 290.494 533L269.759 529.132C249.689 524.059 216.954 522.129 197.494 510.5C176.647 498.042 161.912 478.656 146.494 459.5C133.634 443.522 109.832 425.706 107.494 378C105.776 342.933 108.723 316.121 113.494 306C124.351 282.974 133.657 255.025 156.25 239.305C189.687 216.039 213.113 199.628 218.432 197.096C223.975 194.457 231.055 190.138 246.566 190.037C295.964 189.718 328.442 191.293 344.9 201.137C355.016 207.187 371.572 214.239 380.857 222.396C389.549 230.032 397.214 236.164 405.869 241.904L406.117 242.068C414.47 247.607 423.732 253.748 429.575 262.084Z" fill="#FFCF0F"/>
<rect width="820.12" height="30.1081" transform="matrix(0.992892 -0.119016 0.10035 0.994952 -519.762 443.244)" fill="#E7E7E7"/>
<path d="M240.402 376.778C239.285 377.665 232.116 380.609 224.653 381.969C219.399 382.926 208.97 380.872 191.959 381.062C182.961 381.162 177.124 382.3 170.385 382.902C160.667 383.77 148.254 389.435 141.278 390.781C135.15 391.963 128.003 390.978 120.74 391.403C113.155 391.847 108.048 392.247 102.036 394.295C95.7793 396.427 84.0806 399.037 71.9768 398.126C62.5505 397.416 56.0227 398.588 41.4431 401.934C31.3005 404.262 16.99 402.464 9.51099 404.794C0.943985 407.463 -18.8333 411.987 -37.6037 412.974C-47.3827 413.488 -64.9217 417.945 -80.988 418.259C-95.1102 418.534 -101.248 418.617 -109.977 419.462C-117.026 420.145 -134.651 422.167 -146.5 424.126C-157.144 425.885 -162.173 426.048 -169.418 427.037C-180.927 428.61 -187.634 430.709 -199.057 430.104C-217.369 427.16 -221.328 426.539 -224.307 426.742C-225.73 426.949 -226.972 427.37 -228.803 428.286" stroke="#E7E7E7" stroke-width="6" stroke-linecap="round"/>
<path d="M419 251C416.865 249.371 413.752 247.235 413 247L410 246.461C403.376 245.711 405.156 242.587 370.877 251.14C360.436 253.745 355.632 256.568 345.838 261.476C339.254 264.776 330.736 266.718 315.223 276.143C308.902 279.984 304.6 283.494 300.41 287.168C295.808 291.202 290.098 294.689 286.389 298.688C281.362 304.109 273.512 311.145 269.104 317.726C265.582 322.984 260.54 327.937 256.491 331.768C252.276 335.755 247.193 339.022 243.783 342.934C239.645 347.681 237.374 349.683 232.154 353.184L239.482 369.242C240.683 369.492 243.545 374.575 244.381 375.256C245.706 377.023 248.64 379.367 253.509 381.872C258.418 384.766 265.052 390.183 269.81 394.964C274.98 400.158 280.345 405.422 284.016 409.423C287.688 413.426 297.266 419.478 299.074 424.459C300.687 428.9 302.803 428.8 306.823 432.367C310.843 435.935 313.986 440.568 318.686 443.284C323.386 446 329.539 446.741 334.267 449.127C340.14 452.091 347.221 455.866 354.228 456.562C359.48 457.084 365.672 458.547 375.706 457.262C400.289 454.113 429.381 455.237 432.5 449C433 448 434.752 446.233 435.332 443.687C436.238 440.034 437.186 435.956 439.307 430.88C440.098 428.988 441.149 425.387 442.903 421.314C444.086 418.567 446.259 415.206 447 412.5C447.291 411.44 448.211 407.954 450.466 402.332C452.054 398.372 452.5 395.5 453.5 391C454.365 387.106 455.335 383.514 456 378C456.332 375.243 458 374.573 458 364C458 359 458.805 354.657 458.5 352.5C457.99 348.895 458.39 343.415 458 340.5C457.706 338.305 457.526 332.567 457 326C456.468 319.369 455.353 315.118 455 313C454.5 310 453.269 307.019 452.5 304.5C451.598 301.543 449.659 298.889 448.519 296.317C447.037 292.975 446.505 290.345 446 289.5C445.591 288.816 443.903 285.017 440.5 279.5C437.071 273.941 435.309 271.068 433.879 268.759C432.317 266.237 431.776 264.691 430.441 262.903C428.799 260.703 426 257.5 424 255.5C422.167 253.667 420.157 251.883 419 251Z" fill="#FF7700"/>
</svg>
