<svg width="600" height="600" viewBox="0 0 600 600" fill="none" xmlns="http://www.w3.org/2000/svg">
<rect width="600" height="600" fill="#831714"/>
<path d="M179.6 510V94.2H247.4V510H179.6ZM278.6 102H240.2V94.2H315.2C338.8 94.2 359.8 99.2 378.2 109.2C397 119.2 411.8 132.8 422.6 150C433.4 167.2 438.8 187 438.8 209.4C438.8 231.4 433.4 251 422.6 268.2C411.8 285 397 298.2 378.2 307.8C359.8 317.4 338.8 322.2 315.2 322.2H243.2V314.4H278.6C297.4 314.4 313.6 309.8 327.2 300.6C340.8 291 351.4 278.2 359 262.2C366.6 246.2 370.4 228.6 370.4 209.4C370.4 189.4 366.6 171.4 359 155.4C351.4 139 340.8 126 327.2 116.4C313.6 106.8 297.4 102 278.6 102Z" fill="#F4F1EA"/>
</svg>
