<svg width="1371" height="973" viewBox="0 0 1371 973" fill="none" xmlns="http://www.w3.org/2000/svg">
<g clip-path="url(#clip0_11_32)">
<path d="M1132.29 841.918C1123.41 842.142 1106.08 842.383 1098.17 842.515L1080.5 843.158C1046.95 838.503 856.821 847.01 841.82 843.158C820.659 837.724 794.471 836.845 773.484 823.236C740.985 802.162 711.771 789.205 673.332 741.886L668.026 736.58C662.495 733.188 660.877 730.223 657.945 728.622C652.1 725.292 650.71 716.946 641.497 707.399C632.53 696.61 625.749 682.945 614.438 660.708C602.962 638.148 587.165 620.088 580.283 599.22C573.476 578.578 564.465 555.792 566.067 466.942C566.813 425.54 562.401 386.899 566.067 346.078C569.534 307.48 581.569 277.018 588.06 257.338C597.241 229.503 606.733 207.135 621.335 184.253C654.433 132.389 667.221 123.237 682.415 116.971C718.257 102.189 754.331 81.3559 774.671 80.7915C793.525 80.2684 788.173 79.7313 810.777 81.7675H815.022C852.693 81.7675 851.074 80.7916 923.534 85.8115C950.492 87.6792 960.664 87.6983 996.451 85.8116C1032.24 83.9249 1101.07 83.3417 1173.66 85.8115C1246.26 88.2814 1288.27 85.8116 1367.32 85.8116L1369.97 661.393V664.422L1369.93 672.235L1369.93 672.322C1369.78 729.141 1369.63 784.552 1368 812.264C1366.39 839.837 1363.4 839.991 1361.52 840.088L1361.48 840.09C1358.88 840.376 1356.3 841.222 1339.92 842.65C1325.38 843.916 1298.95 841.387 1283.8 842.65C1268.65 843.913 1264.92 844.359 1254.95 844.551C1245.36 844.736 1234.31 843.928 1217.04 842.664L1215 842.515C1196.55 841.167 1171.79 844.024 1157.85 842.834C1143.9 841.645 1136.79 841.805 1132.29 841.918Z" fill="#C1C1C1"/>
<path d="M1020.43 358.423C1025.7 365.932 1027.69 370.615 1029.37 372.658L1037.15 386.47C1040.66 396.146 1047.07 406.717 1048.5 418.436C1051.12 440.041 1051.65 461.264 1048.5 481.426C1044.03 509.964 1037.37 519.564 1032.42 531.987C1028.58 541.604 1026.96 553.381 1020.76 560.49C1014.54 567.629 1005.51 579.415 994.202 588.951C979.271 601.542 967.579 616.046 959.862 622.028C951.304 628.662 930.394 638.572 916.047 641.937C903.626 644.85 889.827 645.904 872.848 645.904L850.845 641.799C829.548 636.416 794.812 634.368 774.162 622.028C752.04 608.808 736.404 588.236 720.043 567.909C706.397 550.955 681.139 532.049 678.658 481.426C676.835 444.214 679.962 415.763 685.025 405.023C696.546 380.589 706.421 350.932 730.395 334.25C765.877 309.562 790.736 292.147 796.379 289.46C802.262 286.66 809.774 282.076 826.234 281.97C878.652 281.631 913.117 283.302 930.581 293.748C941.315 300.168 958.884 307.651 968.737 316.308C977.96 324.411 986.093 330.917 995.278 337.008L995.541 337.182C1004.4 343.06 1014.23 349.576 1020.43 358.423Z" fill="#FFCF0F"/>
<rect width="870.267" height="31.9491" transform="matrix(0.992892 -0.119016 0.10035 0.994952 13.0475 550.66)" fill="#E7E7E7"/>
<path d="M819.693 480.13C818.507 481.071 810.9 484.195 802.981 485.638C797.406 486.653 786.339 484.474 768.288 484.675C758.74 484.781 752.546 485.989 745.395 486.628C735.083 487.549 721.91 493.561 714.508 494.989C708.005 496.243 700.421 495.198 692.714 495.649C684.665 496.12 679.246 496.545 672.866 498.718C666.227 500.98 653.813 503.75 640.969 502.783C630.967 502.03 624.04 503.273 608.568 506.824C597.806 509.294 582.62 507.386 574.684 509.858C565.593 512.69 544.606 517.491 524.688 518.538C514.311 519.084 495.7 523.814 478.651 524.146C463.665 524.439 457.153 524.527 447.889 525.424C440.409 526.148 421.706 528.294 409.133 530.372C397.839 532.239 392.502 532.412 384.814 533.462C372.601 535.13 365.484 537.358 353.363 536.716C333.931 533.592 329.729 532.933 326.568 533.148C325.058 533.368 323.741 533.814 321.797 534.787" stroke="#E7E7E7" stroke-width="6" stroke-linecap="round"/>
<path d="M405.323 510.096C403.489 510.145 393.31 512.034 380.021 516.91C370.767 520.305 359.214 518.103 351.234 517.769C341.811 517.375 333.993 520.117 316.652 516.995C307.484 515.345 295.119 519.138 282.702 519.126C276.355 519.12 265.612 519.602 258.871 521.576C245.217 525.577 233.678 525.721 199.109 529.662C185.303 531.236 179.006 532.514 172.974 533.492C164.971 534.79 157.121 538.456 151.07 540.128C144.592 541.918 139.053 543.348 131.214 544.82C113.165 548.211 100.584 545.261 93.1659 546.117C78.1457 547.849 70.2423 551.362 64.543 553.003C57.486 553.459 51.7469 553.441 47.9713 552.811C46.2596 552.461 44.9626 552.047 41.9154 551.531" stroke="#E7E7E7" stroke-width="6" stroke-linecap="round"/>
<path d="M1009.21 346.66C1006.95 344.932 1003.64 342.665 1002.84 342.416L999.661 341.844C992.633 341.048 994.522 337.733 958.146 346.809C947.067 349.573 941.969 352.568 931.576 357.777C924.589 361.279 915.551 363.339 899.089 373.34C892.381 377.416 887.817 381.142 883.37 385.04C878.486 389.32 872.427 393.021 868.492 397.264C863.158 403.017 854.828 410.482 850.15 417.466C846.413 423.046 841.063 428.301 836.766 432.366C832.293 436.598 826.899 440.064 823.281 444.215C818.89 449.253 816.48 451.378 810.941 455.092L818.716 472.132C819.991 472.397 823.028 477.791 823.915 478.514C825.321 480.389 828.434 482.877 833.602 485.535C838.811 488.606 845.85 494.354 850.9 499.427C856.385 504.939 862.078 510.524 865.974 514.771C869.87 519.018 880.034 525.44 881.953 530.726C883.664 535.438 885.91 535.332 890.176 539.118C894.442 542.903 897.777 547.82 902.764 550.702C907.752 553.584 914.281 554.37 919.298 556.902C925.529 560.047 933.044 564.054 940.479 564.792C946.052 565.346 952.622 566.898 963.27 565.534C989.356 562.193 1020.23 563.386 1023.54 556.767C1024.07 555.706 1025.93 553.831 1026.54 551.129C1027.5 547.253 1028.51 542.925 1030.76 537.539C1031.6 535.531 1032.71 531.711 1034.58 527.388C1035.83 524.473 1038.14 520.907 1038.92 518.035C1039.23 516.91 1040.21 513.212 1042.6 507.246C1044.29 503.044 1044.76 499.996 1045.82 495.221C1046.74 491.089 1047.77 487.277 1048.47 481.426C1048.83 478.5 1050.6 477.789 1050.6 466.57C1050.6 461.264 1051.45 456.655 1051.13 454.367C1050.59 450.541 1051.01 444.726 1050.6 441.633C1050.28 439.303 1050.09 433.215 1049.54 426.246C1048.97 419.209 1047.79 414.699 1047.41 412.451C1046.88 409.268 1045.58 406.104 1044.76 403.432C1043.8 400.294 1041.75 397.478 1040.54 394.749C1038.96 391.201 1038.4 388.411 1037.86 387.514C1037.43 386.789 1035.64 382.757 1032.03 376.903C1028.39 371.004 1026.52 367.955 1025 365.505C1023.34 362.829 1022.77 361.188 1021.35 359.291C1019.61 356.957 1016.64 353.558 1014.52 351.435C1012.57 349.49 1010.44 347.597 1009.21 346.66Z" fill="#FF7700"/>
</g>
<defs>
<clipPath id="clip0_11_32">
<rect width="1371" height="973" fill="white"/>
</clipPath>
</defs>
</svg>
