<svg width="757" height="208" viewBox="0 0 757 208" fill="none" xmlns="http://www.w3.org/2000/svg">
<path d="M0 143H403V159.5H0V143Z" fill="#E7E7E7"/>
<path d="M376.194 138.351C373.742 140.601 372.428 141.516 369.469 143.037L372.5 152C373.125 152.208 374.373 155.08 374.78 155.493C375.389 156.512 376.822 157.939 379.274 159.573C381.726 161.416 384.959 164.704 387.23 167.535C389.697 170.612 392.265 173.738 394 176.088C395.736 178.439 400.499 182.249 401.192 185C401.811 187.452 402.94 187.533 404.884 189.676C406.828 191.819 408.249 194.47 410.599 196.206C412.95 197.941 416.179 198.724 418.562 200.286C421.522 202.227 425.081 204.674 428.765 205.487C431.526 206.096 434.736 207.263 440.134 207.219C453.359 207.112 457.288 207.42 461 207.219C466.709 206.91 473.996 206.461 478.969 204.869C481.522 204.051 483.967 202.832 486.417 201.807C488.869 200.782 491.725 199.158 494.888 197.008C497.441 195.272 499.595 193.335 501.619 190.781C503.563 188.329 505.859 186.094 507.742 183.435C509.478 180.983 510.89 178.596 511.513 176.088C512.123 173.636 513.016 169.986 513.962 166.905C514.78 164.245 515.412 154.4 514.673 148.538C514.363 146.086 514.206 143.164 513.344 140.579C512.527 138.127 511.764 134.44 510.895 131.292C510.078 128.332 509.263 125.889 508.446 123.438L508.446 123.437C507.629 120.985 505.883 117.847 503.337 115.478C500.478 112.818 498.602 110.203 496.605 108.848C494.355 107.321 491.915 106.502 489.46 105.074C487.008 103.647 484.565 102.833 482.113 102.016C479.661 101.198 477.241 100.293 474.151 99.5668C470.673 98.7495 467.275 95.4856 448.611 97.8373C442.926 98.5536 440.223 99.7425 434.759 101.719C431.085 103.047 426.457 103.534 417.714 107.538C414.15 109.169 411.678 110.755 409.256 112.433C406.595 114.275 403.376 115.759 401.192 117.64C398.232 120.189 393.686 123.414 390.992 126.618C388.84 129.177 385.897 131.478 383.541 133.248C381.089 135.091 378.215 136.497 376.194 138.351Z" fill="#FFCF0F"/>
<path d="M95.875 29H132.438C138.188 29 143.229 30.2292 147.562 32.6875C151.896 35.1042 155.25 38.6042 157.625 43.1875C160.042 47.7292 161.25 53.1042 161.25 59.3125C161.25 65.5208 160.042 70.9792 157.625 75.6875C155.25 80.3542 151.875 83.9792 147.5 86.5625C143.167 89.1042 138.146 90.375 132.438 90.375H107.75V125H95.875V29ZM131.688 79.5C137.229 79.5 141.542 77.8333 144.625 74.5C147.708 71.1667 149.25 66.1458 149.25 59.4375C149.25 52.7708 147.708 47.8542 144.625 44.6875C141.542 41.4792 137.229 39.875 131.688 39.875H107.75V79.5H131.688ZM194.188 126C189.604 126 185.667 125.104 182.375 123.312C179.125 121.521 176.646 118.979 174.938 115.688C173.229 112.354 172.375 108.458 172.375 104C172.375 97.3333 174.333 92.25 178.25 88.75C182.208 85.25 187.938 83.5 195.438 83.5H216V75.0625C216 71.1042 214.708 68.0833 212.125 66C209.583 63.9167 205.875 62.875 201 62.875C196.958 62.875 193.625 63.625 191 65.125C188.417 66.625 186.875 68.6875 186.375 71.3125L186.25 71.9375H175.25V71.8125C175.25 68.1042 176.354 64.7917 178.562 61.875C180.771 58.9583 183.833 56.6875 187.75 55.0625C191.708 53.4375 196.229 52.625 201.312 52.625C209.562 52.625 215.917 54.5208 220.375 58.3125C224.875 62.0625 227.125 67.4375 227.125 74.4375V111.5C227.125 113.333 227.562 114.729 228.438 115.688C229.312 116.604 230.458 117.062 231.875 117.062C232.625 117.062 233.417 116.958 234.25 116.75V124.625C232.417 125.542 230.312 126 227.938 126C224.396 126 221.542 124.938 219.375 122.812C217.208 120.688 216.125 117.812 216.125 114.188V114.062H215.125C210.458 122.021 203.479 126 194.188 126ZM183.625 104.188C183.625 107.938 184.729 110.812 186.938 112.812C189.146 114.771 192.25 115.75 196.25 115.75C200.083 115.75 203.5 114.875 206.5 113.125C209.5 111.375 211.833 108.958 213.5 105.875C215.167 102.792 216 99.2917 216 95.375V93.125H196.062C191.979 93.125 188.875 94.0625 186.75 95.9375C184.667 97.8125 183.625 100.562 183.625 104.188ZM280.812 126C276.229 126 272.125 125 268.5 123C264.917 121 261.917 118.062 259.5 114.188H258.5C258.75 116.938 258.875 119.542 258.875 122V125H247.75V25.25H258.875V52.625C258.875 56.7917 258.75 60.75 258.5 64.5H259.5C262 60.5833 265.062 57.625 268.688 55.625C272.312 53.625 276.417 52.625 281 52.625C286.125 52.625 290.688 53.9375 294.688 56.5625C298.688 59.1458 301.812 63.0208 304.062 68.1875C306.354 73.3125 307.5 79.5417 307.5 86.875V91.125C307.5 98.5 306.354 104.812 304.062 110.062C301.812 115.312 298.667 119.292 294.625 122C290.625 124.667 286.021 126 280.812 126ZM258.875 89.625C258.875 97.9167 260.521 104.354 263.812 108.938C267.104 113.479 271.875 115.75 278.125 115.75C284.333 115.75 288.896 113.75 291.812 109.75C294.771 105.75 296.25 99.5417 296.25 91.125V86.875C296.25 78.6667 294.771 72.625 291.812 68.75C288.896 64.8333 284.333 62.875 278.125 62.875C271.833 62.875 267.042 65.0417 263.75 69.375C260.5 73.7083 258.875 80.0208 258.875 88.3125V89.625ZM326.25 25.25H337.375V125H326.25V25.25ZM386.812 126C376.729 126 369.083 123.104 363.875 117.312C358.708 111.521 356.125 103.021 356.125 91.8125V86.75C356.125 75.5417 358.729 67.0625 363.938 61.3125C369.146 55.5208 376.812 52.625 386.938 52.625C396.979 52.625 404.583 55.5208 409.75 61.3125C414.917 67.0625 417.5 75.5417 417.5 86.75V91.8125C417.5 103.021 414.896 111.521 409.688 117.312C404.521 123.104 396.896 126 386.812 126ZM367.375 91.8125C367.375 107.604 373.854 115.5 386.812 115.5C399.771 115.5 406.25 107.604 406.25 91.8125V86.75C406.25 78.9167 404.625 73.0208 401.375 69.0625C398.167 65.1042 393.354 63.125 386.938 63.125C380.438 63.125 375.542 65.1042 372.25 69.0625C369 73.0208 367.375 78.9167 367.375 86.75V91.8125ZM469.312 126C461.521 126 454.854 124.25 449.312 120.75C443.771 117.208 439.542 112.062 436.625 105.312C433.75 98.5208 432.312 90.2917 432.312 80.625V73.25C432.312 58.375 435.708 47.125 442.5 39.5C449.333 31.8333 459.333 28 472.5 28C479.5 28 485.604 29.0625 490.812 31.1875C496.021 33.3125 500.146 36.3333 503.188 40.25C506.229 44.1667 508.062 48.7917 508.688 54.125L508.812 55.1875H496.75L496.625 54.4375C495.833 49.5625 493.375 45.7917 489.25 43.125C485.125 40.4583 479.729 39.125 473.062 39.125C463.521 39.125 456.333 41.9792 451.5 47.6875C446.708 53.3958 444.312 61.9167 444.312 73.25V80.625C444.312 87.9583 445.333 94.1875 447.375 99.3125C449.417 104.396 452.375 108.271 456.25 110.938C460.167 113.562 464.875 114.875 470.375 114.875C475.625 114.875 480.312 113.729 484.438 111.438C488.604 109.146 491.854 105.979 494.188 101.938C496.521 97.8958 497.688 93.3333 497.688 88.25V84.8125H473.75V73.8125H509.438V125H499.125L498.625 110.625H497.625C494.542 115.875 490.646 119.75 485.938 122.25C481.271 124.75 475.729 126 469.312 126ZM531.25 25.25H542.375V125H531.25V25.25ZM581.188 126C576.604 126 572.667 125.104 569.375 123.312C566.125 121.521 563.646 118.979 561.938 115.688C560.229 112.354 559.375 108.458 559.375 104C559.375 97.3333 561.333 92.25 565.25 88.75C569.208 85.25 574.938 83.5 582.438 83.5H603V75.0625C603 71.1042 601.708 68.0833 599.125 66C596.583 63.9167 592.875 62.875 588 62.875C583.958 62.875 580.625 63.625 578 65.125C575.417 66.625 573.875 68.6875 573.375 71.3125L573.25 71.9375H562.25V71.8125C562.25 68.1042 563.354 64.7917 565.562 61.875C567.771 58.9583 570.833 56.6875 574.75 55.0625C578.708 53.4375 583.229 52.625 588.312 52.625C596.562 52.625 602.917 54.5208 607.375 58.3125C611.875 62.0625 614.125 67.4375 614.125 74.4375V111.5C614.125 113.333 614.562 114.729 615.438 115.688C616.312 116.604 617.458 117.062 618.875 117.062C619.625 117.062 620.417 116.958 621.25 116.75V124.625C619.417 125.542 617.312 126 614.938 126C611.396 126 608.542 124.938 606.375 122.812C604.208 120.688 603.125 117.812 603.125 114.188V114.062H602.125C597.458 122.021 590.479 126 581.188 126ZM570.625 104.188C570.625 107.938 571.729 110.812 573.938 112.812C576.146 114.771 579.25 115.75 583.25 115.75C587.083 115.75 590.5 114.875 593.5 113.125C596.5 111.375 598.833 108.958 600.5 105.875C602.167 102.792 603 99.2917 603 95.375V93.125H583.062C578.979 93.125 575.875 94.0625 573.75 95.9375C571.667 97.8125 570.625 100.562 570.625 104.188ZM657.938 126C649.354 126 642.896 124.292 638.562 120.875C634.271 117.458 631.979 112.917 631.688 107.25L631.625 106.062H642.438L642.562 106.625C643.271 109.833 644.812 112.167 647.188 113.625C649.562 115.042 653 115.75 657.5 115.75C662.5 115.75 666.167 114.896 668.5 113.188C670.833 111.438 672 108.75 672 105.125C672 102.292 671.25 100.125 669.75 98.625C668.25 97.0833 665.688 96.0417 662.062 95.5L649.438 93.6875C643.854 92.8958 639.521 90.7292 636.438 87.1875C633.354 83.6458 631.812 79.125 631.812 73.625C631.812 66.9167 634 61.75 638.375 58.125C642.75 54.4583 648.938 52.625 656.938 52.625C664.354 52.625 670.25 54.2083 674.625 57.375C679 60.5 681.333 64.9792 681.625 70.8125L681.688 71.9375H670.812L670.688 71.375C670.021 68.375 668.604 66.2083 666.438 64.875C664.271 63.5417 661.062 62.875 656.812 62.875C652.021 62.875 648.5 63.7292 646.25 65.4375C644.042 67.1042 642.938 69.8125 642.938 73.5625C642.938 76.3958 643.604 78.5 644.938 79.875C646.312 81.2083 648.583 82.1458 651.75 82.6875L665.688 84.8125C671.438 85.6875 675.792 87.8542 678.75 91.3125C681.75 94.7292 683.25 99.3542 683.25 105.188C683.25 111.896 681.188 117.042 677.062 120.625C672.938 124.208 666.562 126 657.938 126ZM723.938 126C715.354 126 708.896 124.292 704.562 120.875C700.271 117.458 697.979 112.917 697.688 107.25L697.625 106.062H708.438L708.562 106.625C709.271 109.833 710.812 112.167 713.188 113.625C715.562 115.042 719 115.75 723.5 115.75C728.5 115.75 732.167 114.896 734.5 113.188C736.833 111.438 738 108.75 738 105.125C738 102.292 737.25 100.125 735.75 98.625C734.25 97.0833 731.688 96.0417 728.062 95.5L715.438 93.6875C709.854 92.8958 705.521 90.7292 702.438 87.1875C699.354 83.6458 697.812 79.125 697.812 73.625C697.812 66.9167 700 61.75 704.375 58.125C708.75 54.4583 714.938 52.625 722.938 52.625C730.354 52.625 736.25 54.2083 740.625 57.375C745 60.5 747.333 64.9792 747.625 70.8125L747.688 71.9375H736.812L736.688 71.375C736.021 68.375 734.604 66.2083 732.438 64.875C730.271 63.5417 727.062 62.875 722.812 62.875C718.021 62.875 714.5 63.7292 712.25 65.4375C710.042 67.1042 708.938 69.8125 708.938 73.5625C708.938 76.3958 709.604 78.5 710.938 79.875C712.312 81.2083 714.583 82.1458 717.75 82.6875L731.688 84.8125C737.438 85.6875 741.792 87.8542 744.75 91.3125C747.75 94.7292 749.25 99.3542 749.25 105.188C749.25 111.896 747.188 117.042 743.062 120.625C738.938 124.208 732.562 126 723.938 126Z" fill="black"/>
</svg>
