<svg width="969" height="973" viewBox="0 0 969 973" fill="none" xmlns="http://www.w3.org/2000/svg">
<path d="M608.179 65.9387C623.62 62.73 643.767 60.7434 649.133 60.7434L653.639 61.5256C656.915 64.2168 657.718 65.5982 658.542 67.017L658.55 67.031C660.21 69.8777 662.916 74.0133 669.118 81.4102C676.122 90.3272 674.153 101.219 681.919 115.535C693.476 136.838 711.477 151.883 716.275 157.983C720.864 163.819 725.618 169.309 735.066 177.293C742.31 183.413 747.464 188.724 755.673 193.387C764.447 198.372 773.948 213.539 780.047 220.756C791.99 234.888 795.815 236.027 805.465 246.766C816.454 258.995 825.212 272.79 835.022 291.691C838.668 298.717 847.208 315.551 852.164 329.524C854.767 336.861 857.756 346.321 861.622 353.76C865.877 361.945 867.538 378.901 871.081 386.863C875.813 397.5 878.038 411.842 880.134 421.74C883.171 436.081 883.508 431.108 885.1 464.892C885.85 480.818 889.465 513.349 889.406 526.961C889.31 549.019 885.415 568.022 885.1 584.892C884.782 601.868 883.142 613.229 880.134 628.635C877.79 640.641 876.899 649.132 873.652 664.286C871.879 672.562 870.676 678.064 866.363 689.521C859.423 707.958 857.061 725.93 852.331 739.888C849.796 747.368 844.942 753.027 841.154 761.935C838.184 768.916 829.933 779.986 824.588 789.606C818.677 800.246 813.295 811.574 807.995 819.291C800.311 830.481 793.93 837.33 784.711 850.526C770.708 870.569 748.302 899.589 737.177 908.886C716.892 925.84 704.943 934.753 696.957 940.344C691.046 944.482 684.569 949.692 640.8 954.516C621.279 956.667 590.648 950.769 576.628 954.516C563.154 958.117 551.914 955.426 537.352 955.599C509.385 955.933 489.613 957.472 485.924 957.372C481.44 957.251 466.896 957.953 441.091 957.372C418.278 956.858 390.244 956.825 363.894 956.652C352.589 956.577 348.672 956.496 344.58 955.599C333.602 953.193 306.918 939.961 292.624 933.25C284.062 929.23 287.304 933.25 253.165 913.728C241.059 906.805 225.501 894.998 213.558 876.286C201.465 857.339 197.934 851.312 188.278 836.818C179.157 823.127 166.179 806.747 153.45 784.374C137.261 755.922 126.869 735.994 122 725.831C108.784 698.242 103.355 670.487 97.1224 658.306C94.0345 652.271 89.2233 641.824 83.2731 593.351C78.3025 552.858 82.9914 528.639 83.2732 519.482C83.5029 512.021 84.0118 503.755 85.95 494.251C89.2622 478.009 92.9737 451.166 97.1313 435.055C99.6773 425.188 101.611 412.937 104.041 404.652C106.862 395.033 111.184 382.653 113.242 374.935C115.745 365.55 118.312 356.794 125.342 345.512C135.022 329.98 135.552 322.367 142.8 309.532C155.44 287.149 161.247 279.477 169.43 268.418C179.748 254.473 184.346 245.422 192.603 237.349C198.307 231.773 204.996 227.675 212.597 218.961C219.721 210.793 230.171 201.817 241.901 187.093C249.889 177.068 254.884 171.861 258.957 165.095C263.502 157.548 264.592 147.518 267.396 140.709C271.07 131.791 275.451 120.801 280.557 110.963C284.575 103.223 286.626 81.1796 298.368 79.6295C304.183 78.8618 309.304 79.0956 313.175 79.8851C322.864 81.8611 335.464 86.886 350.79 90.758C359.835 93.0432 373.984 97.9838 397.933 98.1105C421.511 98.2352 444.893 96.1389 459.993 93.9923C472.516 92.212 480 90.2753 487.02 89.9353C498.103 89.3984 528.176 84.4945 555.519 79.6294C569.916 77.0677 578.558 73.9731 585.782 71.8721C592.616 69.8842 599.291 67.7857 608.179 65.9387Z" fill="#DDA336"/>
<path d="M774.19 498.83C836.638 526.866 878.512 542.261 888.431 547.243L889.613 534.829C889.928 517.96 889.309 511.186 889.405 489.129C889.464 475.516 885.849 442.986 885.099 427.06C883.508 393.276 883.171 398.249 880.134 383.908C878.037 374.009 875.812 359.668 871.08 349.031C867.538 341.069 865.877 324.113 861.622 315.928C857.755 308.489 854.767 299.029 852.164 291.691C847.208 277.718 838.668 260.885 835.021 253.859C825.212 234.958 816.454 221.163 805.465 208.933C795.815 198.195 791.989 197.056 780.046 182.924C773.947 175.707 764.447 160.54 755.673 155.555C747.464 150.891 742.31 145.581 735.066 139.46C725.617 131.477 720.864 125.986 716.274 120.151C711.477 114.05 693.476 99.0061 681.919 77.7026C674.153 63.3871 676.122 52.495 669.118 43.5779C662.916 36.181 660.21 32.0454 658.55 29.1987L658.542 29.1847C657.717 27.7659 656.915 26.3846 653.639 23.6934L649.133 22.9111C643.767 22.9111 623.62 24.8978 608.179 28.1064C599.291 29.9534 592.616 32.0519 585.782 34.0398C578.558 36.1409 569.916 39.2354 555.519 41.7971C528.176 46.6623 498.103 51.5661 487.02 52.103C479.999 52.443 472.516 54.3797 459.993 56.16C444.893 58.3066 421.51 60.4029 397.933 60.2782C373.983 60.1515 359.835 55.2109 350.79 52.9257C335.464 49.0537 322.864 44.0289 313.175 42.0528C309.304 41.2633 304.183 41.0295 298.367 41.7973C286.625 43.3474 284.575 65.3911 280.557 73.1312C275.451 82.9684 271.069 93.9588 267.396 102.877C264.591 109.685 263.501 119.716 258.957 127.263C254.884 134.029 249.888 139.235 241.901 149.26C230.171 163.984 219.721 172.961 212.597 181.129C204.996 189.843 198.306 193.941 192.603 199.517C184.346 207.59 179.748 216.641 169.43 230.586C161.247 241.645 155.44 249.317 142.8 271.7C135.552 284.534 135.022 292.148 125.342 307.68C118.311 318.962 115.745 327.718 113.242 337.103C111.184 344.821 106.862 357.2 104.041 366.819C101.61 375.105 99.6771 387.356 97.1311 397.222C92.9735 413.334 94.3089 435.828 90.9967 452.071C89.0585 461.575 88.2707 472.984 88.041 480.445L90.9964 470.396C92.5038 463.563 91.908 463.805 93.952 460.938C95.9961 458.071 95.0707 458.851 98.9402 456.431C116.858 446.218 137.839 434.37 186.883 416.993C225.097 403.453 281.615 392.483 345.713 400.702C403.346 408.092 434.593 413.44 448.575 421.484C475.968 437.242 496.949 451.319 506.943 454.603C530.449 462.329 565.548 463.779 653.042 468.338C680.023 469.745 722.141 475.462 774.19 498.83Z" fill="#7091B5"/>
<path d="M319.268 34.3328C310.188 36.2325 300.299 39.3801 297.619 40.3952L296.171 43.2779C301.987 42.5102 307.108 42.744 310.978 43.5334C320.667 45.5095 333.267 50.5344 348.594 54.4064C357.639 56.6915 371.787 61.6321 395.736 61.7588C419.314 61.8835 442.697 59.7873 457.797 57.6406C470.32 55.8604 477.803 53.9237 484.823 53.5836C495.906 53.0468 525.979 48.1429 553.322 43.2778C567.72 40.7161 576.362 37.6215 583.585 35.5205C590.42 33.5326 597.094 31.4341 605.983 29.587L629.81 25.4849C629.345 25.1536 628.944 24.8811 628.471 24.6112C626.448 23.7617 623.469 23.5424 620.168 23.2366C617.036 22.5837 609.149 22.332 599.084 22.0107L597.918 21.9735C593.501 21.8322 590.952 21.5578 587.629 20.9667C584.305 20.3756 580.328 19.4943 574.089 18.9179C567.851 18.3415 559.602 18.0779 552.123 18.3216C544.645 18.5653 538.14 19.358 534.255 19.6767C529.163 20.0944 527.395 20.3654 524.611 20.2558C518.516 20.0158 512.172 20.0428 507.699 19.7256C503.962 19.4606 498.861 19.4225 492.871 18.6752C488.073 18.0765 483.708 17.1531 476.817 17.0251C472.167 16.9388 465.303 17.0709 460.01 17.4845C454.717 17.8982 451.059 18.4236 446.874 19.7815C437.937 22.6812 432.459 24.642 424.612 25.0126C417.527 25.3472 404.508 25.8506 396.494 26.3126C388.479 26.7746 385.558 27.1828 380.059 27.405C374.561 27.6272 366.71 27.4589 361.308 27.91C352.99 28.6047 345.792 30.512 338.956 31.8C334.428 32.653 331.159 31.845 319.268 34.3328Z" fill="#5E7C9D"/>
</svg>
