<svg width="2222" height="958" viewBox="0 0 2222 958" fill="none" xmlns="http://www.w3.org/2000/svg">
<path d="M802.7 810V602.1H822.5V810H802.7ZM847.4 606H820.1V602.1H852.8C864.8 602.1 875.5 604.7 884.9 609.9C894.3 614.9 901.7 621.8 907.1 630.6C912.7 639.4 915.5 649.5 915.5 660.9C915.5 672.3 912.7 682.4 907.1 691.2C901.7 699.8 894.3 706.6 884.9 711.6C875.5 716.4 864.8 718.8 852.8 718.8H821.6V714.9H847.4C856.8 714.9 865 712.6 872 708C879.2 703.2 884.8 696.8 888.8 688.8C893 680.6 895.1 671.3 895.1 660.9C895.1 650.5 893 641.2 888.8 633C884.8 624.8 879.2 618.3 872 613.5C865 608.5 856.8 606 847.4 606ZM1021.48 810H1001.08L953.082 602.1H973.182L1021.48 810ZM987.282 738H921.582L922.482 734.1H987.282V738ZM905.682 810H901.482L951.882 602.1H956.082L905.682 810ZM1053.83 810H1034.03V599.1H1053.83V810ZM1050.23 810V806.4C1050.63 806.4 1052.13 806.4 1054.73 806.4C1057.33 806.4 1060.53 806.4 1064.33 806.4C1068.33 806.4 1072.23 806.4 1076.03 806.4C1079.83 806.4 1083.03 806.4 1085.63 806.4C1088.43 806.4 1089.93 806.4 1090.13 806.4C1097.93 806.4 1104.93 804.3 1111.13 800.1C1117.33 795.7 1122.13 789.7 1125.53 782.1C1129.13 774.3 1130.93 765.5 1130.93 755.7C1130.93 745.9 1129.13 737.3 1125.53 729.9C1122.13 722.3 1117.33 716.4 1111.13 712.2C1105.13 707.8 1098.23 705.6 1090.43 705.6H1051.73V702H1093.43C1104.63 702 1114.53 704.4 1123.13 709.2C1131.93 713.8 1138.83 720.1 1143.83 728.1C1149.03 736.1 1151.63 745.2 1151.63 755.4C1151.63 765.8 1149.13 775.1 1144.13 783.3C1139.33 791.5 1132.73 798 1124.33 802.8C1115.93 807.6 1106.33 810 1095.53 810C1095.53 810 1093.93 810 1090.73 810C1087.73 810 1083.93 810 1079.33 810C1074.93 810 1070.43 810 1065.83 810C1061.43 810 1057.73 810 1054.73 810C1051.73 810 1050.23 810 1050.23 810ZM1051.73 702H1073.93C1081.73 702 1088.73 699.9 1094.93 695.7C1101.13 691.5 1105.93 685.7 1109.33 678.3C1112.93 670.7 1114.73 662 1114.73 652.2C1114.73 642.4 1112.93 633.8 1109.33 626.4C1105.73 619 1100.83 613.2 1094.63 609C1088.63 604.8 1081.63 602.7 1073.63 602.7H1049.03V599.1H1078.43C1089.23 599.1 1098.93 601.4 1107.53 606C1116.13 610.6 1122.93 616.9 1127.93 624.9C1132.93 632.9 1135.43 642 1135.43 652.2C1135.43 662.2 1132.83 671.3 1127.63 679.5C1122.63 687.5 1115.73 693.9 1106.93 698.7C1098.33 703.3 1088.53 705.6 1077.53 705.6H1051.73V702ZM1187.07 810H1167.27V602.1H1187.07V810ZM1390.17 810H1180.47V806.1H1390.17V810ZM1304.97 774.9C1288.17 774.9 1273.07 771.2 1259.67 763.8C1246.27 756.2 1235.77 745.8 1228.17 732.6C1220.57 719.2 1216.77 704 1216.77 687C1216.77 669.8 1220.57 654.6 1228.17 641.4C1235.77 628.2 1246.27 617.9 1259.67 610.5C1273.07 602.9 1288.17 599.1 1304.97 599.1C1321.97 599.1 1337.07 602.9 1350.27 610.5C1363.67 617.9 1374.17 628.2 1381.77 641.4C1389.37 654.6 1393.17 669.8 1393.17 687C1393.17 704 1389.37 719.2 1381.77 732.6C1374.17 745.8 1363.67 756.2 1350.27 763.8C1337.07 771.2 1321.97 774.9 1304.97 774.9ZM1304.97 771.6C1317.97 771.6 1329.67 768.1 1340.07 761.1C1350.67 753.9 1358.97 744 1364.97 731.4C1371.17 718.6 1374.27 703.8 1374.27 687C1374.27 670.4 1371.17 655.8 1364.97 643.2C1358.97 630.4 1350.77 620.4 1340.37 613.2C1329.97 606 1318.17 602.4 1304.97 602.4C1291.97 602.4 1280.17 606 1269.57 613.2C1258.97 620.2 1250.67 630.1 1244.67 642.9C1238.67 655.5 1235.67 670.2 1235.67 687C1235.67 703.4 1238.67 718 1244.67 730.8C1250.67 743.6 1258.87 753.6 1269.27 760.8C1279.87 768 1291.77 771.6 1304.97 771.6ZM1652.61 719.1H1672.71C1670.51 737.7 1664.51 754.1 1654.71 768.3C1645.11 782.3 1632.61 793.3 1617.21 801.3C1602.01 809.1 1585.01 813 1566.21 813C1550.81 813 1536.61 810.4 1523.61 805.2C1510.61 800 1499.21 792.6 1489.41 783C1479.81 773.4 1472.31 762.1 1466.91 749.1C1461.51 735.9 1458.81 721.5 1458.81 705.9C1458.81 690.3 1461.51 676 1466.91 663C1472.31 650 1479.81 638.7 1489.41 629.1C1499.21 619.5 1510.61 612.1 1523.61 606.9C1536.61 601.7 1550.81 599.1 1566.21 599.1C1583.01 599.1 1598.41 602.3 1612.41 608.7C1626.61 614.9 1638.61 623.7 1648.41 635.1C1658.41 646.3 1665.41 659.5 1669.41 674.7H1649.61C1646.01 660.3 1640.21 647.7 1632.21 636.9C1624.21 626.1 1614.51 617.8 1603.11 612C1591.91 606 1579.61 603 1566.21 603C1549.81 603 1535.01 607.3 1521.81 615.9C1508.81 624.3 1498.51 636.2 1490.91 651.6C1483.51 667 1479.81 685.1 1479.81 705.9C1479.81 726.1 1483.51 744 1490.91 759.6C1498.31 775 1508.51 787.1 1521.51 795.9C1534.71 804.7 1549.61 809.1 1566.21 809.1C1581.41 809.1 1595.21 805.4 1607.61 798C1620.01 790.6 1630.11 780.2 1637.91 766.8C1645.91 753.4 1650.81 737.5 1652.61 719.1ZM1563.81 723V719.1H1670.61V721.2L1666.11 723H1563.81ZM1706.91 810H1687.11V602.1H1706.91V810ZM1700.31 810V806.1H1790.31V810H1700.31ZM1907.65 810H1887.25L1839.25 602.1H1859.35L1907.65 810ZM1873.45 738H1807.75L1808.65 734.1H1873.45V738ZM1791.85 810H1787.65L1838.05 602.1H1842.25L1791.85 810ZM1909.71 768H1930.41C1930.41 768.8 1930.31 769.7 1930.11 770.7C1930.11 771.7 1930.11 772.6 1930.11 773.4C1930.31 783.8 1932.91 792.4 1937.91 799.2C1942.91 805.8 1950.01 809.1 1959.21 809.1C1964.01 809.1 1968.51 807.9 1972.71 805.5C1977.11 802.9 1980.61 799 1983.21 793.8C1986.01 788.6 1987.41 782 1987.41 774C1987.41 766.6 1985.81 759.3 1982.61 752.1C1979.41 744.9 1975.21 737.8 1970.01 730.8C1964.81 723.8 1959.21 716.8 1953.21 709.8C1947.01 702.4 1940.91 695 1934.91 687.6C1929.11 680 1924.31 672.4 1920.51 664.8C1916.71 657 1914.81 649 1914.81 640.8C1914.81 632 1916.91 624.5 1921.11 618.3C1925.31 611.9 1930.91 607.1 1937.91 603.9C1944.91 600.7 1952.41 599.1 1960.41 599.1C1969.01 599.1 1976.71 601.1 1983.51 605.1C1990.31 608.9 1995.61 614.2 1999.41 621C2003.41 627.8 2005.41 635.4 2005.41 643.8H1985.61C1985.61 643 1985.61 642.1 1985.61 641.1C1985.81 640.1 1985.91 639.2 1985.91 638.4C1985.91 628.2 1983.91 619.8 1979.91 613.2C1976.11 606.4 1969.51 603 1960.11 603C1953.71 603 1947.71 605.4 1942.11 610.2C1936.71 615 1934.01 623.2 1934.01 634.8C1934.01 641.6 1935.51 648.4 1938.51 655.2C1941.71 661.8 1945.71 668.4 1950.51 675C1955.51 681.6 1960.81 688.3 1966.41 695.1C1973.01 702.7 1979.31 710.5 1985.31 718.5C1991.51 726.3 1996.61 734.3 2000.61 742.5C2004.61 750.5 2006.61 758.7 2006.61 767.1C2006.61 776.5 2004.41 784.6 2000.01 791.4C1995.61 798.2 1989.71 803.5 1982.31 807.3C1975.11 811.1 1967.21 813 1958.61 813C1949.41 813 1941.11 811.1 1933.71 807.3C1926.31 803.3 1920.41 797.9 1916.01 791.1C1911.81 784.3 1909.71 776.6 1909.71 768ZM2007.21 768H2027.91C2027.91 768.8 2027.81 769.7 2027.61 770.7C2027.61 771.7 2027.61 772.6 2027.61 773.4C2027.81 783.8 2030.41 792.4 2035.41 799.2C2040.41 805.8 2047.51 809.1 2056.71 809.1C2061.51 809.1 2066.01 807.9 2070.21 805.5C2074.61 802.9 2078.11 799 2080.71 793.8C2083.51 788.6 2084.91 782 2084.91 774C2084.91 766.6 2083.31 759.3 2080.11 752.1C2076.91 744.9 2072.71 737.8 2067.51 730.8C2062.31 723.8 2056.71 716.8 2050.71 709.8C2044.51 702.4 2038.41 695 2032.41 687.6C2026.61 680 2021.81 672.4 2018.01 664.8C2014.21 657 2012.31 649 2012.31 640.8C2012.31 632 2014.41 624.5 2018.61 618.3C2022.81 611.9 2028.41 607.1 2035.41 603.9C2042.41 600.7 2049.91 599.1 2057.91 599.1C2066.51 599.1 2074.21 601.1 2081.01 605.1C2087.81 608.9 2093.11 614.2 2096.91 621C2100.91 627.8 2102.91 635.4 2102.91 643.8H2083.11C2083.11 643 2083.11 642.1 2083.11 641.1C2083.31 640.1 2083.41 639.2 2083.41 638.4C2083.41 628.2 2081.41 619.8 2077.41 613.2C2073.61 606.4 2067.01 603 2057.61 603C2051.21 603 2045.21 605.4 2039.61 610.2C2034.21 615 2031.51 623.2 2031.51 634.8C2031.51 641.6 2033.01 648.4 2036.01 655.2C2039.21 661.8 2043.21 668.4 2048.01 675C2053.01 681.6 2058.31 688.3 2063.91 695.1C2070.51 702.7 2076.81 710.5 2082.81 718.5C2089.01 726.3 2094.11 734.3 2098.11 742.5C2102.11 750.5 2104.11 758.7 2104.11 767.1C2104.11 776.5 2101.91 784.6 2097.51 791.4C2093.11 798.2 2087.21 803.5 2079.81 807.3C2072.61 811.1 2064.71 813 2056.11 813C2046.91 813 2038.61 811.1 2031.21 807.3C2023.81 803.3 2017.91 797.9 2013.51 791.1C2009.31 784.3 2007.21 776.6 2007.21 768Z" fill="#831714"/>
<path d="M377.945 142.139C376.894 144.263 371.903 151.654 365.647 158.406C363.503 160.719 362.672 163.09 361.172 166.552C358.417 172.913 353.441 191.243 347.842 213.608C343.272 231.86 339.894 247.361 338.281 253.403C334.409 267.912 334.848 279.961 334.452 296.416C334.199 306.942 334.897 313.846 335.783 321.459C336.527 327.852 337.713 339.399 338.291 357.461C338.869 375.523 338.763 399.755 338.594 415.503C338.354 437.784 337.974 446.987 337.794 452.515C337.695 455.571 337.195 459.117 336.989 470.172C336.782 481.228 336.788 499.679 337.119 511.52C337.829 536.937 339.621 546.547 339.957 555.198C340.235 562.368 340.33 575.195 340.457 596.485C340.584 617.775 340.637 647.143 340.584 662.93C340.527 680.036 340.031 682.901 339.712 689.636C339.044 703.75 337.964 715.31 335.401 719.239C332.133 724.247 325.985 726.387 319.364 729.93C310.668 734.583 300.687 737.419 281.28 738.799C265.898 739.893 239.186 740.119 224.768 740.357C206.236 740.662 201.244 739.542 195.811 738.811C186.106 737.506 177.686 736.012 173.275 734.297C165.88 731.423 156.098 727.274 149.157 723.725C144.373 721.388 140.03 719.276 136.621 717.478C135.039 716.642 133.758 715.959 132.727 714.658" stroke="#831714" stroke-width="3" stroke-linecap="round"/>
<path d="M111.396 132.558C112.342 135.657 117.323 147.894 123.702 159.988C130.345 172.584 138.256 187.755 141.543 197.091C146.367 210.79 145.561 218.116 145.841 229.924C145.926 233.497 145.71 237.312 145.57 255.308C145.431 273.304 145.243 305.366 145.019 322.487C144.78 340.822 143.694 345.823 142.381 364.351C141.336 379.1 140.814 404.78 139.98 422.72C139.145 440.659 138.345 450.098 137.827 455.49C137.309 460.882 137.098 461.94 136.988 474.29C136.878 486.641 136.877 510.252 135.666 531.191C134.455 552.13 132.034 569.682 130.488 592.952C128.941 616.221 128.343 644.676 127.604 662.662C126.59 687.332 125.117 698.838 125.321 706.469C125.93 710.488 127.002 712.482 128.422 714.143C129.19 714.913 130.052 715.536 133.673 716.679" stroke="#831714" stroke-width="3" stroke-linecap="round"/>
<path d="M193.909 241.118C193.909 246.892 195.041 262.118 197.485 265.63C199.758 268.898 201.211 257.721 201.147 248.353C199.369 243.403 197.09 240.611 195.196 239.702C194.219 239.469 193.207 239.697 191.992 242.369" stroke="#831714" stroke-width="3" stroke-linecap="round"/>
<path d="M194.151 289.809C194.148 291.14 197.618 297.486 191.343 340.427C189.003 356.442 189.882 375.753 190.161 386.959C190.439 398.164 191.185 400.803 192.06 402.256C192.934 403.708 193.915 403.894 194.644 403.512C196.222 402.686 196.391 400.118 196.555 391.388C196.966 369.53 196.42 353.068 196.086 342.99C195.592 303.779 195.234 299.528 195.051 295.855C194.872 293.935 194.517 291.903 194.151 289.809Z" stroke="#831714" stroke-width="3" stroke-linecap="round"/>
<path d="M288.872 127.345C289.214 127.612 291.887 130.964 294.805 136.041C295.541 137.322 296.065 138.864 297.238 142.629C298.411 146.394 300.108 152.392 301.156 155.903C302.464 160.281 303.112 161.441 303.561 162.099C304.048 162.812 304.756 163.331 305.44 163.504C305.752 163.583 306.028 163.21 306.206 162.856C306.953 161.371 306.62 156.902 306.216 153.383C305.923 150.826 304.142 149.055 298.607 136.925C295.286 131.463 292.807 129.574 289.995 127.631C288.917 126.935 288.55 126.825 287.653 127.028" stroke="#831714" stroke-width="3" stroke-linecap="round"/>
<path d="M110 131.225C111.441 130.96 115.412 129.466 123.373 125.31C131.809 120.907 143.413 118.299 148.761 117.031C156.386 115.223 163.239 115.501 170.401 115.111M170.401 115.111C184.307 114.354 194.056 117.677 203.252 118.996C212.262 120.289 217.46 120.794 225.062 121.337C237.591 122.233 249.363 119.442 257.996 117.543M170.401 115.111L172.232 115.033C172.245 115.033 183.247 115.562 187.626 115.537C189.265 115.527 189.717 115.461 192.122 115.426C194.527 115.391 198.871 115.374 201.608 115.457C205.353 115.571 206.819 116.037 208.826 116.445C210.382 116.762 213.056 117.166 215.607 117.401C218.158 117.637 220.513 117.657 222.131 117.664C224.56 117.674 226.536 117.797 228.575 118.07C229.473 118.19 230.09 118.315 232.092 118.382C234.094 118.448 237.461 118.464 240.023 118.382C242.586 118.3 244.242 118.121 246.575 118.028C248.909 117.936 251.87 117.936 253.492 117.919C255.115 117.903 255.308 117.87 256.041 117.835L257.996 117.543M257.996 117.543C270.599 114.773 287.149 114.701 298.894 115.948C303.627 116.451 307.401 118.846 316.995 122.345C334.94 128.891 351.13 127.008 361.496 130.069C366.112 131.433 368.112 136.185 370.981 139.305C371.792 140.002 372.662 140.65 373.567 141.263C374.473 141.876 375.388 142.435 377.945 142.138" stroke="#831714" stroke-width="3" stroke-linecap="round"/>
<path d="M349.242 128.028C349.534 128.155 350.516 128.547 351.669 128.866C352.902 129.207 354.72 129.603 358.169 130.917C360.273 131.718 362.451 133.893 363.779 135.052C364.534 135.71 365.157 136.529 366.343 137.681C368.544 139.817 370.753 141.802 371.975 142.949C372.934 143.849 374.094 144.567 375.135 144.884C375.332 144.912 375.527 144.942 375.662 144.868C375.798 144.793 375.87 144.611 376.048 144.174" stroke="#831714" stroke-width="3" stroke-linecap="round"/>
<path d="M249.524 724.594C250.191 724.671 252.912 725.174 270.413 725.268C279.152 725.315 289.491 722.225 296.878 719.914C301.531 718.459 308.355 716.424 315.285 713.873C320.926 711.796 323.436 709.506 323.958 708.434C324.303 705.784 324.226 703.451 323.992 701.9C323.835 701.02 323.599 699.952 323.277 697.472" stroke="#831714" stroke-width="3" stroke-linecap="round"/>
<path d="M130.961 756.93C129.554 756.37 128.431 755.555 127.594 754.487C126.764 753.399 126.267 752.168 126.102 750.793C125.946 749.399 126.167 747.949 126.767 746.442C127.375 744.916 128.205 743.697 129.257 742.784C130.33 741.879 131.521 741.309 132.832 741.073C134.163 740.845 135.532 741.012 136.939 741.572C138.326 742.124 139.407 742.899 140.181 743.896C140.975 744.901 141.436 746.05 141.565 747.341C141.713 748.64 141.5 750.013 140.923 751.46L140.509 752.5L128.041 747.569L128.846 745.72L138.449 749.544C138.93 748.335 138.95 747.218 138.509 746.193C138.067 745.167 137.232 744.41 136.004 743.921C135.072 743.55 134.187 743.438 133.347 743.586C132.535 743.722 131.793 744.115 131.12 744.766C130.476 745.405 129.936 746.269 129.502 747.359C128.808 749.103 128.667 750.609 129.081 751.876C129.503 753.123 130.457 754.043 131.944 754.635C133.034 755.069 134.012 755.206 134.88 755.046C135.747 754.886 136.465 754.438 137.035 753.7L139.651 754.742C138.679 756.146 137.438 757.041 135.929 757.427C134.42 757.814 132.764 757.648 130.961 756.93ZM141.762 756.033L144.332 757.335C143.975 758.039 143.948 758.731 144.249 759.409C144.561 760.069 145.154 760.621 146.03 761.065C146.981 761.547 147.805 761.737 148.502 761.636C149.209 761.515 149.721 761.141 150.04 760.513C150.271 760.056 150.321 759.603 150.19 759.154C150.078 758.715 149.708 758.217 149.081 757.66L146.915 755.846C145.833 754.915 145.146 753.981 144.855 753.044C144.583 752.117 144.707 751.14 145.228 750.112C145.662 749.256 146.257 748.625 147.012 748.218C147.787 747.822 148.652 747.65 149.605 747.702C150.578 747.765 151.578 748.056 152.606 748.577C153.634 749.097 154.427 749.726 154.986 750.464C155.564 751.211 155.899 752.014 155.99 752.873C156.1 753.742 155.938 754.628 155.504 755.533L152.934 754.231C153.282 753.498 153.328 752.816 153.074 752.185C152.82 751.554 152.283 751.032 151.465 750.617C150.628 750.193 149.889 750.046 149.249 750.176C148.609 750.307 148.13 750.686 147.812 751.314C147.34 752.246 147.702 753.231 148.899 754.267L151.05 756.11C152.095 756.975 152.758 757.861 153.04 758.768C153.331 759.657 153.216 760.615 152.695 761.643C152.252 762.518 151.624 763.169 150.811 763.594C150.007 764 149.095 764.172 148.075 764.109C147.083 764.037 146.025 763.717 144.902 763.148C143.266 762.319 142.165 761.259 141.599 759.968C141.033 758.677 141.088 757.366 141.762 756.033ZM159.904 752.826L167.852 757.364L166.598 759.559L158.651 755.021L159.904 752.826ZM157.425 769.43L154.813 767.938L164.999 750.097L167.612 751.589L157.425 769.43ZM163.835 772.213C163.237 772.054 162.766 771.708 162.422 771.175C162.104 770.627 162.024 770.054 162.183 769.456C162.347 768.838 162.7 768.38 163.243 768.082C163.811 767.77 164.395 767.693 164.992 767.852C165.59 768.01 166.048 768.364 166.367 768.911C166.69 769.439 166.77 770.012 166.606 770.63C166.447 771.228 166.094 771.686 165.546 772.004C165.003 772.302 164.433 772.371 163.835 772.213ZM193.836 776.006L178.273 774.719L178.476 772.327L186.449 766.548C187.451 765.841 188.287 765.195 188.958 764.609C189.628 764.024 190.167 763.481 190.573 762.98C190.981 762.458 191.282 761.937 191.476 761.419C191.67 760.9 191.793 760.332 191.845 759.716C191.968 758.27 191.67 757.11 190.952 756.236C190.257 755.342 189.208 754.836 187.805 754.717C186.381 754.596 185.192 754.987 184.237 755.891C183.306 756.776 182.76 758.036 182.6 759.671L179.475 759.406C179.657 757.772 180.129 756.367 180.893 755.19C181.656 754.013 182.65 753.145 183.875 752.585C185.123 752.006 186.523 751.782 188.075 751.913C189.627 752.045 190.941 752.456 192.017 753.147C193.093 753.837 193.894 754.751 194.418 755.887C194.966 757.004 195.176 758.307 195.05 759.795C194.982 760.603 194.81 761.369 194.534 762.095C194.26 762.8 193.859 763.494 193.33 764.177C192.824 764.841 192.177 765.525 191.39 766.229C190.604 766.911 189.663 767.656 188.567 768.462L182.097 773.18L181.137 772.007L194.082 773.105L193.836 776.006ZM196.874 764.621C196.909 762.232 197.323 760.147 198.117 758.366C198.933 756.565 200.063 755.173 201.507 754.191C202.951 753.188 204.643 752.701 206.584 752.729C208.526 752.757 210.193 753.294 211.586 754.338C213 755.362 214.078 756.785 214.82 758.61C215.583 760.413 215.947 762.509 215.912 764.898C215.877 767.309 215.462 769.404 214.668 771.185C213.896 772.966 212.787 774.347 211.343 775.329C209.921 776.29 208.218 776.755 206.235 776.726C204.251 776.698 202.551 776.182 201.137 775.18C199.722 774.157 198.644 772.743 197.902 770.94C197.182 769.138 196.839 767.031 196.874 764.621ZM199.978 764.666C199.95 766.564 200.182 768.211 200.674 769.605C201.166 770.977 201.876 772.033 202.804 772.772C203.753 773.511 204.91 773.891 206.276 773.911C207.619 773.93 208.777 773.585 209.747 772.873C210.718 772.162 211.458 771.127 211.969 769.769C212.501 768.39 212.781 766.752 212.808 764.853C212.836 762.933 212.604 761.287 212.112 759.914C211.642 758.521 210.932 757.454 209.983 756.715C209.034 755.954 207.887 755.564 206.543 755.545C205.178 755.525 204.01 755.881 203.039 756.614C202.09 757.325 201.35 758.371 200.817 759.75C200.286 761.107 200.006 762.746 199.978 764.666ZM223.27 756.142L218.406 756.15L218.401 753.334L226.273 753.321L226.312 776.457L223.304 776.462L223.27 756.142ZM233.285 760.588L238.599 753.191L242.247 753.145L235.736 762.029L235.029 761.814C235.642 761.337 236.277 760.987 236.936 760.765C237.615 760.522 238.297 760.396 238.979 760.387C240.579 760.367 241.981 760.701 243.184 761.389C244.409 762.056 245.36 762.994 246.037 764.201C246.735 765.408 247.094 766.78 247.113 768.316C247.134 769.937 246.779 771.382 246.049 772.65C245.339 773.896 244.349 774.88 243.078 775.6C241.829 776.32 240.404 776.69 238.804 776.711C237.204 776.731 235.749 776.387 234.439 775.679C233.149 774.97 232.123 773.991 231.361 772.742C230.598 771.493 230.207 770.09 230.187 768.532C230.175 767.615 230.26 766.761 230.442 765.969C230.645 765.177 230.976 764.351 231.434 763.492C231.893 762.633 232.51 761.665 233.285 760.588ZM233.387 768.523C233.401 769.59 233.637 770.536 234.095 771.363C234.554 772.167 235.18 772.799 235.976 773.259C236.792 773.696 237.723 773.908 238.768 773.895C239.792 773.882 240.696 773.646 241.479 773.188C242.263 772.709 242.873 772.061 243.311 771.245C243.748 770.407 243.96 769.455 243.946 768.388C243.932 767.322 243.696 766.386 243.238 765.581C242.78 764.776 242.153 764.155 241.358 763.717C240.563 763.258 239.653 763.035 238.629 763.048C237.584 763.061 236.659 763.308 235.854 763.787C235.071 764.246 234.46 764.883 234.023 765.699C233.585 766.515 233.373 767.457 233.387 768.523Z" fill="#831714"/>
<path d="M272.524 601.746C272.986 603.343 279.988 615.152 285.218 623.139C287.499 626.621 291.887 631.791 298.022 637.771C299.934 639.635 302.323 642.326 308.322 649.079C323.856 666.569 334.679 678.239 336.919 679.823C344.209 684.977 350.052 692.262 360.66 704.306C368.995 713.768 375.641 722.797 379.183 728.698C381.77 733.006 386.203 738.006 391.832 745.859C400.563 758.038 406.077 770.965 409.545 782.5C417.437 808.746 418.13 813.522 419.939 817.393C422.509 822.889 429.804 828.292 436.475 832.216C441.365 835.092 452.441 837.273 467.468 840.694C482.381 844.088 492.31 842.472 501.507 842.72C508.93 842.919 521.956 842.719 532.357 841.706C559.042 839.109 562.037 834.81 565.467 832.118C569.311 829.1 572.312 823.24 576.038 818.655C578.632 815.464 580.565 811.213 584.038 804.157C590.348 791.333 595.377 779.802 597.21 773.338C598.708 768.055 601.375 761.32 604.296 752.758C610.48 734.632 623.829 722.794 628.401 717.638C641.183 703.219 645.162 696.46 654.625 686.921C662.87 678.611 677.732 662.887 685.764 654.401C694.538 645.13 697.537 641.321 701.875 636.355C710.127 626.906 718.417 616.199 719.587 611.814C720.705 607.63 721.459 603.813 721.319 601.876C721.253 600.952 720.434 600.282 719.614 599.852C715.979 597.946 709.632 598.175 701.991 594.487C694.644 590.94 680.76 588.936 675.427 588.083C670.729 587.332 666.367 586.627 662.379 586.293C661.256 586.199 659.993 586.237 659.206 586.666C657.741 587.465 657.86 589.946 658.038 592.174C658.449 597.308 662.443 601.943 664.013 605.878C665.017 608.395 664.755 612.371 664.546 616.294C664.414 618.75 662.918 620.113 661.399 621.432C657.763 624.592 649.25 624.508 640.545 622.632C637.31 621.935 628.599 615.622 616.031 607.27C608.612 602.34 602.047 598.821 592.902 594.999C582.233 590.541 574.824 589.798 571.499 589.42C565.114 588.693 553.887 587.124 541.187 585.228C531.96 583.85 520.448 583.907 508.209 583.571C502.062 583.402 495.977 586.941 488.198 591.054C483.273 593.657 477.095 596.519 468.093 600.343C458.993 604.208 447.812 609.84 436.786 614.48C428.53 617.955 412.587 620.04 403.104 621.202C394.597 622.245 390.683 617.28 386 614.48C380.462 611.168 378.681 605.796 377.414 600.343C376.329 595.672 370.832 584.733 370 581C369.182 577.327 352.044 575.397 337.198 570.987C328.708 568.464 318.245 575.031 299.238 582.549C291.062 585.783 283.031 590.115 276.199 594.122C274.539 595.425 273.354 596.749 272.369 598.246C271.89 599.016 271.452 599.806 271 600.621" stroke="#831714" stroke-width="3" stroke-linecap="round"/>
<path d="M367.5 578.5L371 579.5C375.308 580.566 378.943 582.032 384.054 580.418C392.158 577.86 403.104 574.089 411.416 569.863C417.521 566.759 423.51 563.883 428.69 561.869C433.67 559.933 441.381 557.135 451.757 554.139C461.452 551.34 471.267 550.764 480.175 551.076C496.345 551.642 508.318 557.384 514.103 558.059C520.211 558.771 529.143 562.455 537.844 565.38C546.231 568.199 561.409 573.25 573.904 573.97C577.19 574.159 578.971 573.389 580.57 572.557C584.12 570.711 587.262 565.154 590.901 557.356C591.62 555.814 591.688 554.916 592.235 554.389C594.979 551.745 600.914 553.305 609.143 552.822C631.536 551.51 635.451 553.916 647.206 555.994C654.651 557.309 665.86 565.001 674.401 570.991C690.924 582.578 698.832 586.641 703.351 589.472C704.982 590.333 706.679 591.461 708.785 593.127C710.061 594.081 711.761 595.256 715.256 597.444" stroke="#831714" stroke-width="3" stroke-linecap="round"/>
<path d="M363 651C363 651.041 373.283 654.93 376 661C380.768 673.707 394.947 681.67 395.163 685.378" stroke="#831714" stroke-width="3" stroke-linecap="round"/>
<path d="M570.613 794.807C570.559 796.263 569.765 800.035 565.409 805.434C560.722 811.243 555.206 815.174 549.964 818.136C546.534 820.073 541.075 822.002 536.015 823.413C526.492 826.07 518.068 826.034 511.706 825.69C508.857 825.372 506.778 824.766 505.437 824.297C504.095 823.829 503.554 823.517 502.997 823.196" stroke="#831714" stroke-width="3" stroke-linecap="round"/>
<path d="M588.802 592.821C589.611 592.821 595.008 593.92 598.515 594.911C600.748 595.542 607.296 598.484 610.971 600.473C614.616 602.445 616.925 604.119 618.321 604.787C621.566 606.339 625.718 609.819 628.041 611.188C630.288 612.512 632.84 613.934 634.435 615.12C637.246 617.21 638.875 618.223 640.059 619.132C640.646 619.583 641.589 619.848 643.049 620.162C645.198 620.624 650.713 620.87 657.213 621.081C659.795 621.055 660.373 620.871 660.938 620.637C661.215 620.51 661.469 620.369 662.244 620.057" stroke="#831714" stroke-width="3" stroke-linecap="round"/>
<path d="M591.701 555.948C593.758 555.948 598.926 555.795 601.584 555.696C609.252 555.412 617.299 555.114 620.03 554.967C621.29 554.898 624.877 555.155 629.825 555.187C632.531 555.204 636.481 555.736 642.046 556.535C648.938 557.524 652.064 559.467 654.264 560.313C658.256 561.713 661.71 563.171 663.839 564.175C664.363 564.415 664.808 564.624 665.832 565.122" stroke="#831714" stroke-width="3" stroke-linecap="round"/>
<path d="M459 552.5C459.747 552.505 466.919 552.89 476.596 553.363C479.327 553.496 483.577 554.469 489.276 555.523C492.062 556.038 498.49 556.822 507.427 558.101C511.083 558.625 515.951 559.884 523.152 561.646C526.983 562.659 529.883 563.586 532.855 564.607C533.999 565.021 542.929 567.243 544 567.5" stroke="#831714" stroke-width="3" stroke-linecap="round"/>
<path d="M341.562 570.866C342.517 570.877 347.825 571.287 352.466 572.553C354.608 573.137 356.608 573.701 357.898 573.933C359.49 574.218 360.739 575.017 364.681 576.251C367.697 577.196 368.539 578.132 369.582 578.695C371.168 579.551 372.427 581.182 373.861 583.23C374.772 584.531 375.738 585.819 376.653 587.214C377.689 588.793 378.931 594.36 379.937 597.441C380.297 598.542 381.844 601.903 382.965 604.244C383.432 605.22 384.019 606.095 384.629 607.087C385.391 608.326 386.247 609.805 387.917 612.174C389.641 614.619 390.616 615.281 392.418 616.417C394.823 617.933 397.43 619.214 398.673 619.776C399.822 620.24 400.677 620.462 401.302 620.553C401.637 620.59 402.01 620.611 402.464 620.658" stroke="#831714" stroke-width="3" stroke-linecap="round"/>
</svg>
